<svg xmlns="http://www.w3.org/2000/svg" xmlns:svg="http://www.w3.org/2000/svg" xmlns:xlink="http://www.w3.org/1999/xlink" id="svg4768" width="128" height="128" version="1.0" viewBox="0.171 0.201 1365.333 1365.333" xml:space="preserve"><metadata id="metadata70"/><defs id="defs4770"><linearGradient id="linearGradient4292"><stop id="stop4294" offset="0" style="stop-color:#411f5d;stop-opacity:1"/><stop id="stop4296" offset="1" style="stop-color:#5b2a85;stop-opacity:1"/></linearGradient><linearGradient id="linearGradient4284"><stop style="stop-color:#8381c5;stop-opacity:1" id="stop4286" offset="0"/><stop id="stop4290" offset=".566" style="stop-color:#7e55b3;stop-opacity:.99607843"/><stop style="stop-color:#a52ecb;stop-opacity:.99215686" id="stop4288" offset="1"/></linearGradient><linearGradient id="linearGradient4898"><stop id="stop4278" offset="0" style="stop-color:#bab8db;stop-opacity:1"/><stop id="stop4280" offset="1" style="stop-color:#5955a9;stop-opacity:.99159664"/></linearGradient><linearGradient id="linearGradient3294"><stop style="stop-color:#6376e6;stop-opacity:1" id="stop3296" offset="0"/><stop style="stop-color:#222989;stop-opacity:1" id="stop3302" offset=".501"/><stop style="stop-color:#00003d;stop-opacity:1" id="stop3298" offset="1"/></linearGradient><linearGradient id="linearGradient3284"><stop style="stop-color:#000;stop-opacity:1" id="stop3286" offset="0"/><stop style="stop-color:#000;stop-opacity:.49803922" id="stop3292" offset=".848"/><stop style="stop-color:#000;stop-opacity:0" id="stop3288" offset="1"/></linearGradient><linearGradient id="linearGradient3274"><stop style="stop-color:#000;stop-opacity:1" id="stop3276" offset="0"/><stop style="stop-color:#000;stop-opacity:0" id="stop3278" offset="1"/></linearGradient><linearGradient id="linearGradient3262"><stop style="stop-color:#000;stop-opacity:1" id="stop3264" offset="0"/><stop style="stop-color:#000;stop-opacity:0" id="stop3266" offset="1"/></linearGradient><linearGradient id="linearGradient3242"><stop style="stop-color:#282828;stop-opacity:1" id="stop3244" offset="0"/><stop style="stop-color:gray;stop-opacity:1" id="stop3252" offset=".393"/><stop style="stop-color:#d9d9d9;stop-opacity:1" id="stop3246" offset="1"/></linearGradient><linearGradient id="linearGradient3202"><stop style="stop-color:#2b2b2b;stop-opacity:1" id="stop3204" offset="0"/><stop style="stop-color:#828383;stop-opacity:1" id="stop3250" offset=".5"/><stop style="stop-color:#dadbdb;stop-opacity:1" id="stop3206" offset="1"/></linearGradient><linearGradient id="linearGradient4966"><stop style="stop-color:#b6b3d8;stop-opacity:1" id="stop4968" offset="0"/><stop style="stop-color:#b6b3d8;stop-opacity:0" id="stop4970" offset="1"/></linearGradient><linearGradient id="linearGradient4938"><stop style="stop-color:#000;stop-opacity:1" id="stop4940" offset="0"/><stop style="stop-color:#000;stop-opacity:0" id="stop4942" offset="1"/></linearGradient><linearGradient id="linearGradient4282"><stop style="stop-color:#bab8db;stop-opacity:1" id="stop4900" offset="0"/><stop style="stop-color:#5955a9;stop-opacity:.99159664" id="stop4902" offset="1"/></linearGradient><linearGradient id="linearGradient4876"><stop style="stop-color:#d3d2e8;stop-opacity:1" id="stop4878" offset="0"/><stop style="stop-color:#5955a9;stop-opacity:.99159664" id="stop4880" offset="1"/></linearGradient><radialGradient id="radialGradient4892" cx="20.952" cy="-108.969" r="266.765" fx="20.952" fy="-108.969" gradientTransform="matrix(0.6817439,0,0,0.5905355,-3.8523706,-28.935273)" gradientUnits="userSpaceOnUse" xlink:href="#linearGradient4898"/><radialGradient id="radialGradient4944" cx="233.888" cy="471.262" r="170.494" fx="233.888" fy="471.262" gradientTransform="matrix(1,0,0,0.1854103,0,383.88493)" gradientUnits="userSpaceOnUse" xlink:href="#linearGradient4938"/><radialGradient id="radialGradient4972" cx="299.701" cy="371.764" r="76.696" fx="299.701" fy="371.764" gradientTransform="matrix(1,0,0,0.9121621,0,32.654948)" gradientUnits="userSpaceOnUse" xlink:href="#linearGradient4966"/><radialGradient id="radialGradient3210" cx="289.441" cy="390.452" r="17.677" fx="289.441" fy="390.452" gradientTransform="matrix(0.414705,0.3300575,-0.5059004,0.6356454,346.95314,49.479585)" gradientUnits="userSpaceOnUse" xlink:href="#linearGradient3202"/><radialGradient id="radialGradient3238" cx="283.507" cy="382.148" r="17.677" fx="283.507" fy="382.148" gradientTransform="matrix(0.414705,0.3300575,-0.5059004,0.6356454,448.41009,-65.398074)" gradientUnits="userSpaceOnUse" xlink:href="#linearGradient3202"/><radialGradient id="radialGradient3248" cx="418.456" cy="181.19" r="63.069" fx="418.456" fy="181.19" gradientTransform="matrix(-0.06556501,-0.05972176,1.6871024,-1.8521705,171.90774,540.51473)" gradientUnits="userSpaceOnUse" xlink:href="#linearGradient3242"/><radialGradient id="radialGradient3268" cx="354.517" cy="357.336" r="33.712" fx="354.517" fy="357.336" gradientTransform="matrix(0.4055116,-0.03344012,0.1034174,4.3988695,177.23251,-1191.6649)" gradientUnits="userSpaceOnUse" xlink:href="#linearGradient3262"/><radialGradient id="radialGradient3280" cx="510.585" cy="223.555" r="132.283" fx="510.585" fy="223.555" gradientTransform="matrix(-0.1339874,-0.1146812,0.3079048,-0.3597394,444.23592,395.03849)" gradientUnits="userSpaceOnUse" xlink:href="#linearGradient3274"/><radialGradient id="radialGradient3290" cx="284.467" cy="-158.178" r="110.297" fx="284.467" fy="-158.178" gradientTransform="matrix(-1.2497569,1.3798305,-0.09628946,-0.07297448,674.3826,-70.590682)" gradientUnits="userSpaceOnUse" xlink:href="#linearGradient3284"/><radialGradient id="radialGradient3300" cx="425.51" cy="356.623" r="143.342" fx="425.51" fy="356.623" gradientTransform="matrix(-0.1008165,-0.08087232,1.0745309,-1.3395252,13.843287,784.79288)" gradientUnits="userSpaceOnUse" xlink:href="#linearGradient3294"/><filter id="filter4350" width="1.107" height="1.106" x="-.054" y="-.053" style="color-interpolation-filters:sRGB"><feGaussianBlur id="feGaussianBlur4352" stdDeviation="8.785"/></filter><linearGradient id="linearGradient4245" x1="-122.202" x2="236.614" y1="-161.851" y2="300.74" gradientTransform="matrix(2.4315674,0,0,2.304466,659.53579,663.13125)" gradientUnits="userSpaceOnUse" spreadMethod="pad" xlink:href="#linearGradient4284"/><linearGradient id="linearGradient4247" x1="447.809" x2="173.945" y1="396.607" y2="66.018" gradientTransform="matrix(2.7459728,0,0,2.7459728,-16.552857,-26.266753)" gradientUnits="userSpaceOnUse" xlink:href="#linearGradient4292"/><mask id="mask-powermask-path-effect2111" maskUnits="userSpaceOnUse"><path id="mask-powermask-path-effect2111_box" d="M 16.684704,6.6910491 H 1353.115 V 1356.3744 H 16.684704 Z" style="fill:#fff;fill-opacity:1"/><path id="path2109" d="m 461.95331,1141.8135 c 0,0 54.92365,3.8852 125.58048,-2.342 28.61422,-2.5216 137.25472,-13.1928 218.47835,-31.0057 0,0 99.03119,-21.194 152.01178,-40.7182 55.43568,-20.4293 85.60178,-37.7679 99.17978,-62.3362 -0.5921,-5.034 4.1806,-22.88475 -21.3839,-33.60736 C 970.46086,944.39025 894.66019,949.34881 744.66938,946.1687 578.33547,940.45356 523.00277,912.61178 493.52735,890.188 465.26234,867.44 479.4754,804.50577 600.58429,749.07027 661.59037,719.5501 900.74092,665.07304 900.74092,665.07304 820.19931,625.26221 670.01456,555.27602 639.14256,540.16309 612.066,526.90839 568.73534,506.95054 559.34279,482.8042 c -10.64914,-23.18125 25.14966,-43.14995 45.14655,-48.86841 64.4019,-18.57645 155.31775,-30.12231 238.06176,-31.41855 41.59155,-0.65163 48.34261,-3.32755 48.34261,-3.32755 57.38843,-9.51959 95.16755,-48.78323 79.42719,-110.96523 -14.1307,-63.47157 -88.65724,-100.76682 -159.47935,-87.85561 -66.69306,12.15859 -227.4407,58.85144 -227.4407,58.85144 198.69597,-1.7197 231.95235,1.59656 246.80513,22.3628 8.77147,12.26393 -3.98575,29.07971 -56.97717,37.73433 -57.69093,9.42221 -177.61445,20.76904 -177.61445,20.76904 -115.04487,6.83231 -196.08232,7.28959 -220.38747,58.74867 -15.8787,33.61883 16.93303,63.34035 31.31443,81.94458 60.77317,67.58584 148.55612,104.03672 205.06055,130.8794 21.26017,10.09968 83.63999,29.17261 83.63999,29.17261 -183.31034,-10.08221 -315.54366,46.20586 -393.1107,111.01379 -87.73093,81.14685 -48.9214,177.87139 130.81503,237.42735 106.15957,35.17584 158.80791,51.71924 317.16088,37.45964 93.27156,-5.0275 107.97491,-2.0356 108.90485,5.6177 1.30919,10.7753 -103.59795,37.5414 -132.2386,45.8027 -72.86228,21.0169 -263.86392,63.4547 -264.82001,63.6606 z" style="display:inline;fill:#000;fill-opacity:1;fill-rule:evenodd;stroke:#000;stroke-width:0;stroke-linecap:butt;stroke-linejoin:miter;stroke-miterlimit:4;stroke-dasharray:none;stroke-opacity:1"/></mask><filter id="mask-powermask-path-effect2111_inverse" width="100" height="100" x="-50" y="-50" style="color-interpolation-filters:sRGB"><feColorMatrix id="mask-powermask-path-effect2111_primitive1" result="fbSourceGraphic" type="saturate" values="1"/><feColorMatrix id="mask-powermask-path-effect2111_primitive2" in="fbSourceGraphic" values="-1 0 0 0 1 0 -1 0 0 1 0 0 -1 0 1 0 0 0 1 0"/></filter></defs><path id="path4235" d="m 1333.5579,681.53284 c 0,361.90346 -290.4141,655.28446 -648.65794,655.28446 -358.24378,0 -648.658106,-293.381 -648.658106,-655.28446 0,-361.90377 290.414326,-655.284641 648.658106,-655.284641 358.24384,0 648.65794,293.380871 648.65794,655.284641 z" mask="url(#mask-powermask-path-effect2111)" style="display:inline;opacity:1;fill:#666b77;fill-opacity:1;stroke:#666b77;stroke-width:37.1143;stroke-miterlimit:4;stroke-dasharray:none;stroke-opacity:1"/></svg>